<svg xmlns="http://www.w3.org/2000/svg" xmlns:xlink="http://www.w3.org/1999/xlink" width="500" zoomAndPan="magnify" viewBox="0 0 375 374.999991" height="500" preserveAspectRatio="xMidYMid meet" version="1.0"><defs><g/></defs><g fill="#0c63e7" fill-opacity="1"><g transform="translate(13.9043, 297.188589)"><g><path d="M 11.308594 -24.917969 C 14.449219 -18.425781 19.265625 -12.984375 24.917969 -8.585938 C 32.039062 -3.140625 40.832031 0.210938 50.464844 1.046875 L 50.464844 1.257812 L 88.15625 1.257812 C 112.027344 1.257812 131.085938 -15.285156 131.085938 -41.042969 L 64.078125 -41.042969 C 57.375 -41.042969 53.398438 -45.648438 52.351562 -51.929688 L 52.351562 -126.058594 C 52.140625 -126.6875 52.140625 -127.316406 52.140625 -128.152344 L 52.140625 -141.765625 C 52.140625 -142.390625 52.140625 -143.019531 52.351562 -143.648438 C 53.1875 -149.722656 58.632812 -154.328125 64.496094 -154.957031 L 93.390625 -154.957031 L 93.390625 -149.929688 C 115.796875 -149.929688 130.039062 -165.636719 130.039062 -186.15625 L 130.039062 -197.253906 L 45.230469 -197.253906 C 23.035156 -196 7.957031 -179.875 7.957031 -154.957031 C 7.957031 -154.746094 7.957031 -154.539062 7.957031 -154.539062 L 7.957031 -41.671875 C 7.957031 -35.808594 9.214844 -30.152344 11.308594 -24.917969 Z M 11.308594 -24.917969 "/></g></g></g><g fill="#0c63e7" fill-opacity="1"><g transform="translate(158.599436, 297.188589)"><g><path d="M 142.8125 -196.835938 L 101.140625 -134.855469 L 59.46875 -197.046875 L 59.261719 -197.046875 C 32.246094 -197.046875 10.46875 -175.269531 10.46875 -148.253906 L 10.46875 0.835938 C 37.484375 0.835938 59.261719 -20.941406 59.261719 -47.953125 L 59.261719 -115.378906 L 101.140625 -67.636719 L 142.8125 -117.265625 L 142.8125 0.835938 C 169.824219 0.835938 191.601562 -20.941406 191.601562 -47.953125 L 191.601562 -196.835938 Z M 142.8125 -196.835938 "/></g></g></g></svg>